{"glyphs":{":":{"x_min":0,"x_max":113,"ha":113,"o":"m 29 514 q 35 514 40 510 q 44 505 44 499 l 44 454 q 44 447 40 442 q 35 438 29 438 q 13 438 13 454 l 13 499 q 13 505 18 510 q 22 514 29 514 z m 29 239 q 35 239 40 234 q 44 230 44 223 l 44 179 q 44 172 40 168 q 35 163 29 163 q 13 163 13 179 l 13 223 q 13 239 29 239 z"},"$":{"x_min":0,"x_max":320,"ha":320,"o":"m 161 339 q 174 333 192 323 q 210 313 226 297 q 241 281 252 257 q 263 233 263 198 q 263 133 232 93 q 203 55 154 49 l 154 16 q 154 0 138 0 q 122 0 122 16 l 122 49 q 102 51 82 59 q 63 67 48 84 q 32 101 22 130 q 13 158 13 202 q 13 218 29 218 q 45 218 45 202 q 45 166 52 143 q 59 120 70 106 q 81 93 94 87 q 108 81 122 80 l 122 323 q 120 324 118 325 q 117 326 115 327 q 102 334 84 344 q 67 354 51 370 q 35 387 24 412 q 13 436 13 471 q 13 536 44 578 q 73 619 122 624 l 122 659 q 122 665 126 670 q 131 674 138 674 q 145 674 150 670 q 154 665 154 659 l 154 625 q 174 623 194 615 q 213 607 228 590 q 244 572 254 543 q 263 514 263 471 q 263 455 247 455 q 231 455 231 471 q 231 507 224 530 q 217 553 206 566 q 195 580 182 586 q 168 591 154 593 l 154 342 q 156 341 158 340 q 159 340 161 339 z m 45 471 q 45 445 52 426 q 59 408 70 396 q 82 383 96 374 q 109 365 122 359 l 122 593 q 101 590 86 578 q 72 566 62 549 q 53 532 49 512 q 45 492 45 471 z m 154 81 q 191 86 211 116 q 231 147 231 198 q 231 224 224 242 q 216 260 205 272 q 194 285 180 293 q 166 301 154 307 z"},"?":{"x_min":0,"x_max":303,"ha":303,"o":"m 233 624 q 248 601 256 572 q 263 542 263 507 q 263 471 254 444 q 246 418 234 398 q 222 379 208 366 q 195 353 184 344 q 179 340 176 337 q 172 334 169 331 q 149 308 138 253 q 127 198 127 119 l 127 116 q 127 109 122 104 q 118 100 112 100 q 96 100 96 116 l 96 119 q 96 149 98 183 q 99 217 104 248 q 110 280 120 308 q 130 335 146 352 q 152 360 164 368 q 174 377 186 388 q 198 399 208 416 q 218 432 224 454 q 231 476 231 507 q 231 537 225 562 q 219 588 207 606 q 181 644 138 644 q 92 644 70 610 q 45 576 45 502 q 45 496 40 492 q 36 487 29 487 q 22 487 18 492 q 13 496 13 502 q 13 583 44 628 q 75 675 138 675 q 199 675 233 624 z m 111 44 q 118 44 122 40 q 127 35 127 29 l 127 17 q 127 1 111 1 q 95 1 95 17 l 95 29 q 95 35 100 40 q 104 44 111 44 z"},"<":{"x_min":0,"x_max":833,"ha":833,"o":""},"'":{"x_min":0,"x_max":81,"ha":81,"o":"m 26 675 q 42 675 42 659 l 42 602 q 42 596 38 592 q 33 587 26 587 q 20 587 16 592 q 11 596 11 602 l 11 659 q 11 666 16 670 q 20 675 26 675 z"},"=":{"x_min":0,"x_max":312,"ha":312,"o":"m 236 422 l 23 422 q 7 422 7 438 q 7 454 23 454 l 236 454 q 242 454 246 450 q 251 445 251 438 q 251 431 246 426 q 242 422 236 422 z m 236 222 l 23 222 q 7 222 7 238 q 7 254 23 254 l 236 254 q 242 254 246 250 q 251 245 251 238 q 251 231 246 226 q 242 222 236 222 z"},"a":{"x_min":0,"x_max":392,"ha":392,"o":"m 342 19 q 344 13 340 8 q 336 2 330 0 l 326 0 q 314 0 311 12 l 266 206 l 89 206 l 44 12 q 42 6 36 2 q 31 -2 25 0 q 18 2 14 8 q 11 13 13 19 l 162 662 q 165 674 177 674 q 190 674 193 662 z m 259 237 l 177 589 l 96 237 z"},"L":{"x_min":0,"x_max":295,"ha":295,"o":"m 247 0 l 21 0 q 5 0 5 16 l 5 659 q 5 665 10 670 q 14 674 21 674 q 27 674 32 670 q 36 665 36 659 l 36 31 l 247 31 q 254 31 258 26 q 263 22 263 16 q 263 0 247 0 z"},"3":{"x_min":0,"x_max":303,"ha":303,"o":"m 206 309 q 224 292 242 260 q 259 227 259 174 q 259 94 225 47 q 191 0 134 0 q 70 0 39 48 q 9 93 9 178 q 9 194 25 194 q 31 194 36 190 q 40 185 40 178 q 40 103 65 66 q 89 31 134 31 q 177 31 202 70 q 227 109 227 174 q 227 219 212 246 q 198 273 184 287 q 164 306 143 314 q 122 321 108 321 l 107 321 l 78 321 q 72 321 68 326 q 63 330 63 336 q 63 343 68 348 q 72 352 78 352 l 108 352 q 126 352 147 361 q 168 370 186 388 q 203 406 215 434 q 227 461 227 499 q 227 563 202 604 q 178 643 134 643 q 40 643 40 495 q 40 488 36 484 q 31 479 25 479 q 9 479 9 495 q 9 580 39 625 q 70 674 134 674 q 194 674 229 620 q 259 573 259 499 q 259 447 242 414 q 224 381 206 364 q 186 346 168 336 q 189 325 206 309 z"},";":{"x_min":0,"x_max":97,"ha":97,"o":"m 28 514 q 35 514 40 510 q 44 505 44 499 l 44 454 q 44 438 28 438 q 12 438 12 454 l 12 499 q 12 505 16 510 q 21 514 28 514 z m 28 239 q 44 239 44 223 l 44 143 q 44 127 28 127 q 12 127 12 143 l 12 223 q 12 239 28 239 z"},"J":{"x_min":0,"x_max":324,"ha":324,"o":"m 134 0 q 67 0 33 43 q 0 83 0 165 q 0 171 4 176 q 9 181 16 181 q 22 181 26 176 q 31 171 31 165 q 31 120 41 94 q 51 67 66 53 q 81 39 99 35 q 117 31 134 31 q 184 31 210 62 q 236 96 236 165 l 236 659 q 236 665 240 670 q 245 674 252 674 q 258 674 262 670 q 267 665 267 659 l 267 165 q 267 83 234 43 q 201 0 134 0 z"},"V":{"x_min":0,"x_max":401,"ha":401,"o":"m 182 1 q 170 1 167 13 l 6 656 q 4 662 8 668 q 11 673 18 675 q 24 677 30 674 q 35 670 37 663 l 182 82 l 328 663 q 330 670 336 674 q 341 677 347 675 q 353 673 356 668 q 360 662 358 656 l 198 13 q 195 1 182 1 z"},"\"":{"x_min":0,"x_max":162,"ha":162,"o":"m 26 675 q 42 675 42 659 l 42 602 q 42 596 38 592 q 33 587 26 587 q 20 587 16 592 q 11 596 11 602 l 11 659 q 11 666 16 670 q 20 675 26 675 z m 86 675 q 102 675 102 659 l 102 602 q 102 596 98 592 q 93 587 86 587 q 79 587 74 592 q 70 596 70 602 l 70 659 q 70 675 86 675 z"},"7":{"x_min":0,"x_max":376,"ha":376,"o":"m 58 0 q 54 0 52 1 q 46 4 44 10 q 41 16 44 22 l 303 643 l 19 643 q 13 643 8 648 q 4 652 4 659 q 4 665 8 670 q 13 674 19 674 l 326 674 q 335 674 339 667 q 344 660 341 652 l 73 10 q 68 0 58 0 z"},"S":{"x_min":0,"x_max":352,"ha":352,"o":"m 158 1 q 86 1 50 47 q 14 92 14 179 q 14 195 30 195 q 36 195 40 190 q 45 186 45 179 q 45 130 56 101 q 67 72 84 56 q 100 41 120 36 q 140 32 158 32 q 212 32 242 70 q 271 107 271 174 q 271 210 258 234 q 246 259 228 274 q 211 290 192 299 q 173 308 161 314 l 144 322 q 129 328 107 340 q 85 351 64 372 q 44 392 29 422 q 14 452 14 496 q 14 572 49 621 q 88 675 158 675 q 230 675 267 629 q 303 584 303 496 q 303 490 298 485 q 294 480 287 480 q 280 480 276 485 q 271 490 271 496 q 271 572 242 609 q 215 644 158 644 q 105 644 75 602 q 45 561 45 496 q 45 460 57 435 q 69 410 86 394 q 104 377 123 367 q 142 357 157 351 l 173 344 q 186 338 208 327 q 230 316 251 296 q 272 277 288 248 q 303 218 303 174 q 303 137 294 106 q 284 75 267 52 q 228 1 158 1 z"},"}":{"x_min":0,"x_max":833,"ha":833,"o":""},"Z":{"x_min":0,"x_max":409,"ha":409,"o":"m 320 1 l 19 1 q 9 1 5 8 q 1 16 4 23 l 295 643 l 19 643 q 3 643 3 659 q 3 675 19 675 l 320 675 q 329 675 333 668 q 338 659 334 652 l 43 32 l 320 32 q 336 32 336 16 q 336 10 332 6 q 327 1 320 1 z"},"x":{"x_min":0,"x_max":392,"ha":392,"o":"m 341 23 q 344 17 342 11 q 339 5 333 2 q 331 1 327 1 q 316 1 312 10 l 175 301 l 38 10 q 33 1 24 1 q 19 1 17 2 q 4 9 9 23 l 158 338 l 9 652 q 7 658 9 664 q 11 671 17 673 q 31 680 38 666 l 175 375 l 312 666 q 315 672 322 674 q 328 676 333 673 q 339 671 342 664 q 344 658 341 652 l 193 338 z"},")":{"x_min":0,"x_max":158,"ha":158,"o":"m 33 4 q 29 2 25 1 q 17 -1 12 8 q 8 13 8 17 q 9 21 11 24 q 13 28 17 30 q 22 34 29 42 q 34 49 42 60 q 49 71 57 88 q 64 103 71 126 q 78 148 84 178 q 90 209 94 248 q 98 287 98 337 q 98 436 84 496 q 71 556 57 588 q 42 621 30 634 q 17 647 16 647 l 17 647 q 14 650 12 654 q 10 657 10 661 q 9 665 13 670 q 16 675 20 676 q 24 677 27 676 q 31 675 34 673 q 35 672 50 658 q 66 643 83 606 q 100 568 114 504 q 129 439 129 337 q 129 166 84 70 q 66 33 50 19 q 35 5 33 4 z"},"&":{"x_min":0,"x_max":429,"ha":429,"o":"m 368 24 q 371 18 370 12 q 368 5 362 2 q 358 0 354 0 q 346 0 341 8 l 303 72 q 252 0 150 0 q 82 0 39 49 q -1 95 -1 166 q -1 199 7 224 q 15 249 28 269 q 42 289 60 305 q 77 321 95 336 q 104 344 112 352 q 121 359 130 367 q 123 377 112 396 q 101 415 91 438 q 81 461 74 486 q 66 512 66 537 q 66 604 83 635 q 104 674 150 674 q 202 674 222 628 q 231 608 233 583 q 235 558 235 537 q 235 501 228 472 q 221 443 210 421 q 200 399 189 384 q 178 370 170 362 l 302 137 q 315 175 318 216 q 322 256 322 288 q 322 295 326 300 q 331 304 337 304 q 353 304 353 288 q 353 250 348 200 q 343 150 322 105 q 322 104 321 103 z m 150 643 q 140 643 130 640 q 121 636 114 625 q 106 614 102 593 q 97 572 97 537 q 97 517 103 496 q 109 474 118 454 q 127 434 136 417 q 146 400 153 389 q 157 394 162 401 q 167 408 172 416 q 204 469 204 537 q 204 570 200 590 q 196 611 189 623 q 182 635 172 639 q 162 643 150 643 z m 150 31 q 244 31 285 102 l 147 339 q 139 332 132 326 q 124 319 116 312 q 98 297 82 283 q 67 269 56 252 q 44 236 38 215 q 31 194 31 166 q 31 141 38 116 q 45 92 60 73 q 74 54 96 42 q 119 31 150 31 z"},"_":{"x_min":0,"x_max":461,"ha":461,"o":"m 398 -32 l 26 -32 q 10 -32 10 -16 q 10 -10 14 -6 q 19 -1 26 -1 l 398 -1 q 405 -1 410 -6 q 414 -10 414 -16 q 414 -32 398 -32 z"},"v":{"x_min":0,"x_max":401,"ha":401,"o":"m 182 1 q 170 1 167 13 l 6 656 q 4 662 8 668 q 11 673 18 675 q 24 677 30 674 q 35 670 37 663 l 182 82 l 328 663 q 330 670 336 674 q 341 677 347 675 q 353 673 356 668 q 360 662 358 656 l 198 13 q 195 1 182 1 z"},"O":{"x_min":0,"x_max":348,"ha":348,"o":"m 153 0 q 129 0 104 7 q 78 14 57 34 q 36 54 23 88 q 10 123 10 179 l 10 496 q 10 582 45 628 q 82 674 153 674 q 225 674 261 628 q 297 583 297 496 l 297 179 q 297 123 284 88 q 271 54 250 34 q 229 14 204 7 q 178 0 153 0 z m 153 643 q 96 643 70 608 q 41 571 41 496 l 41 179 q 41 103 70 66 q 97 31 153 31 q 208 31 237 66 q 265 101 265 179 l 265 496 q 265 573 237 608 q 209 643 153 643 z"},"(":{"x_min":0,"x_max":166,"ha":166,"o":"m 105 4 q 103 5 88 19 q 72 33 55 70 q 9 165 9 337 q 9 439 24 504 q 38 568 56 606 q 73 643 88 658 q 103 672 104 673 q 107 675 111 676 q 114 677 118 676 q 122 675 125 670 q 130 661 127 654 q 125 650 122 647 q 116 642 109 634 q 103 627 96 616 q 89 605 81 588 q 67 556 54 496 q 40 436 40 337 q 40 238 54 178 q 67 119 81 88 q 96 56 108 42 q 114 34 121 30 q 125 28 127 24 q 131 16 126 8 q 123 3 119 2 q 115 0 112 1 q 108 2 105 4 z"},"C":{"x_min":0,"x_max":344,"ha":344,"o":"m 153 0 q 129 0 104 7 q 78 14 57 34 q 36 54 23 88 q 10 123 10 179 l 10 496 q 10 551 23 586 q 36 621 57 640 q 78 660 104 667 q 129 674 153 674 q 178 674 204 667 q 229 660 250 640 q 271 621 284 586 q 297 551 297 496 q 297 480 281 480 q 265 480 265 496 q 265 571 236 608 q 210 643 153 643 q 98 643 70 608 q 41 571 41 496 l 41 179 q 41 104 70 66 q 99 31 153 31 q 209 31 236 66 q 265 104 265 179 q 265 195 281 195 q 297 195 297 179 q 297 123 284 88 q 271 54 250 34 q 229 14 204 7 q 178 0 153 0 z"},"W":{"x_min":0,"x_max":651,"ha":651,"o":"m 446 1 q 433 1 431 13 l 304 586 l 178 13 q 175 1 162 1 q 150 1 147 13 l 5 656 q 3 662 7 668 q 11 673 17 675 q 33 677 36 663 l 162 90 l 289 663 q 291 675 304 675 q 317 675 320 663 l 446 90 l 572 663 q 574 669 580 672 q 585 676 591 675 q 598 673 602 668 q 605 662 603 656 l 461 13 q 459 1 446 1 z"},"A":{"x_min":0,"x_max":392,"ha":392,"o":"m 342 19 q 344 13 340 8 q 336 2 330 0 l 326 0 q 314 0 311 12 l 266 206 l 89 206 l 44 12 q 42 6 36 2 q 31 -2 25 0 q 18 2 14 8 q 11 13 13 19 l 162 662 q 165 674 177 674 q 190 674 193 662 z m 259 237 l 177 589 l 96 237 z"},"f":{"x_min":0,"x_max":308,"ha":308,"o":"m 241 353 q 257 353 257 337 q 257 331 252 326 q 248 322 241 322 l 46 322 l 46 16 q 46 9 42 4 q 37 0 31 0 q 15 0 15 16 l 15 659 q 15 665 20 670 q 24 674 31 674 l 241 674 q 248 674 252 670 q 257 665 257 659 q 257 643 241 643 l 46 643 l 46 353 l 241 353 z"},"Q":{"x_min":0,"x_max":348,"ha":348,"o":"m 295 1 q 299 -4 298 -10 q 297 -17 292 -21 q 289 -25 283 -25 q 274 -25 270 -19 l 234 25 q 202 0 150 0 q 79 0 42 49 q 7 96 7 182 l 7 499 q 7 585 43 629 q 79 674 150 674 q 222 674 258 629 q 293 587 293 499 l 293 182 q 293 94 258 49 q 258 48 258 48 q 257 48 257 47 z m 150 31 q 188 31 214 49 l 180 92 q 175 97 176 103 q 177 109 182 114 q 194 122 204 112 l 236 72 q 262 110 262 182 l 262 499 q 262 573 233 610 q 206 643 150 643 q 94 643 67 610 q 38 573 38 499 l 38 182 q 38 106 67 68 q 95 31 150 31 z"},"w":{"x_min":0,"x_max":651,"ha":651,"o":"m 446 1 q 433 1 431 13 l 304 586 l 178 13 q 175 1 162 1 q 150 1 147 13 l 5 656 q 3 662 7 668 q 11 673 17 675 q 33 677 36 663 l 162 90 l 289 663 q 291 675 304 675 q 317 675 320 663 l 446 90 l 572 663 q 574 669 580 672 q 585 676 591 675 q 598 673 602 668 q 605 662 603 656 l 461 13 q 459 1 446 1 z"},"-":{"x_min":0,"x_max":299,"ha":299,"o":"m 236 322 l 23 322 q 7 322 7 338 q 7 354 23 354 l 236 354 q 242 354 246 350 q 251 345 251 338 q 251 331 246 326 q 242 322 236 322 z"},"E":{"x_min":0,"x_max":312,"ha":312,"o":"m 42 322 l 42 31 l 237 31 q 244 31 248 26 q 253 22 253 16 q 253 0 237 0 l 27 0 q 11 0 11 16 l 11 659 q 11 665 16 670 q 20 674 27 674 l 237 674 q 244 674 248 670 q 253 665 253 659 q 253 643 237 643 l 42 643 l 42 353 l 237 353 q 253 353 253 337 q 253 331 248 326 q 244 322 237 322 z"},"s":{"x_min":0,"x_max":352,"ha":352,"o":"m 158 1 q 86 1 50 47 q 14 92 14 179 q 14 195 30 195 q 36 195 40 190 q 45 186 45 179 q 45 130 56 101 q 67 72 84 56 q 100 41 120 36 q 140 32 158 32 q 212 32 242 70 q 271 107 271 174 q 271 210 258 234 q 246 259 228 274 q 211 290 192 299 q 173 308 161 314 l 144 322 q 129 328 107 340 q 85 351 64 372 q 44 392 29 422 q 14 452 14 496 q 14 572 49 621 q 88 675 158 675 q 230 675 267 629 q 303 584 303 496 q 303 490 298 485 q 294 480 287 480 q 280 480 276 485 q 271 490 271 496 q 271 572 242 609 q 215 644 158 644 q 105 644 75 602 q 45 561 45 496 q 45 460 57 435 q 69 410 86 394 q 104 377 123 367 q 142 357 157 351 l 173 344 q 186 338 208 327 q 230 316 251 296 q 272 277 288 248 q 303 218 303 174 q 303 137 294 106 q 284 75 267 52 q 228 1 158 1 z"},">":{"x_min":0,"x_max":833,"ha":833,"o":""},"l":{"x_min":0,"x_max":295,"ha":295,"o":"m 247 0 l 21 0 q 5 0 5 16 l 5 659 q 5 665 10 670 q 14 674 21 674 q 27 674 32 670 q 36 665 36 659 l 36 31 l 247 31 q 254 31 258 26 q 263 22 263 16 q 263 0 247 0 z"},"8":{"x_min":0,"x_max":332,"ha":332,"o":"m 216 337 q 235 326 249 307 q 281 265 281 176 q 281 87 249 45 q 216 0 146 0 q 75 0 42 45 q 10 89 10 176 q 10 263 42 307 q 56 327 76 337 q 56 348 42 367 q 10 411 10 498 q 10 585 42 629 q 75 674 146 674 q 216 674 249 629 q 281 587 281 498 q 281 409 249 367 q 235 349 216 337 z m 67 386 q 92 353 146 353 q 200 353 224 386 q 249 420 249 498 q 249 576 224 610 q 200 643 146 643 q 92 643 67 610 q 42 576 42 498 q 42 420 67 386 z m 224 64 q 249 98 249 176 q 249 254 224 289 q 200 322 146 322 q 92 322 67 289 q 42 254 42 176 q 42 98 67 64 q 92 31 146 31 q 200 31 224 64 z"},"\\":{"x_min":0,"x_max":380,"ha":380,"o":"m 283 0 q 273 0 268 10 l 32 653 q 30 659 32 665 q 35 671 41 673 q 57 678 62 664 l 298 21 q 300 15 298 9 q 295 3 289 1 q 287 0 283 0 z"},"e":{"x_min":0,"x_max":312,"ha":312,"o":"m 42 322 l 42 31 l 237 31 q 244 31 248 26 q 253 22 253 16 q 253 0 237 0 l 27 0 q 11 0 11 16 l 11 659 q 11 665 16 670 q 20 674 27 674 l 237 674 q 244 674 248 670 q 253 665 253 659 q 253 643 237 643 l 42 643 l 42 353 l 237 353 q 253 353 253 337 q 253 331 248 326 q 244 322 237 322 z"},"b":{"x_min":0,"x_max":336,"ha":336,"o":"m 202 337 q 224 326 239 308 q 274 264 274 176 q 274 88 239 44 q 202 0 125 0 l 30 0 q 14 0 14 16 l 14 659 q 14 665 18 670 q 23 674 30 674 l 125 674 q 202 674 239 630 q 274 586 274 498 q 274 411 239 367 q 231 357 222 350 q 213 343 202 337 z m 46 353 l 125 353 q 187 353 214 387 q 242 421 242 498 q 242 576 215 610 q 188 643 125 643 l 46 643 z m 125 31 q 188 31 215 64 q 242 98 242 176 q 242 254 214 288 q 187 322 125 322 l 46 322 l 46 31 z"},"%":{"x_min":0,"x_max":449,"ha":449,"o":"m 164 450 q 164 409 141 384 q 118 358 82 358 q 46 358 23 384 q 0 409 0 450 l 0 536 q 0 577 23 602 q 46 628 82 628 q 118 628 141 602 q 164 577 164 536 z m 31 450 q 31 429 42 410 q 54 390 82 390 q 110 390 121 410 q 132 429 132 450 l 132 536 q 132 557 121 576 q 110 596 82 596 q 54 596 42 576 q 31 557 31 536 z m 356 673 q 369 666 364 652 l 76 9 q 71 0 61 0 q 57 0 55 1 q 49 4 46 10 q 44 16 47 22 l 335 665 q 342 678 356 673 z m 327 314 q 363 314 386 289 q 408 264 408 223 l 408 137 q 408 96 386 70 q 363 45 327 45 q 290 45 268 70 q 245 96 245 137 l 245 223 q 245 264 268 289 q 290 314 327 314 z m 377 223 q 377 233 374 244 q 372 254 366 263 q 360 272 350 278 q 341 283 327 283 q 313 283 303 278 q 293 272 287 263 q 281 254 278 244 q 276 233 276 223 l 276 137 q 276 116 287 96 q 298 76 327 76 q 355 76 366 96 q 377 116 377 137 z"},"m":{"x_min":0,"x_max":473,"ha":473,"o":"m 392 0 q 376 0 376 16 l 376 546 l 223 11 q 219 0 207 0 q 196 0 192 11 l 39 546 l 39 16 q 39 0 23 0 q 7 0 7 16 l 7 659 q 7 672 21 674 q 34 676 38 663 l 207 73 l 377 663 q 381 676 394 674 q 408 672 408 659 l 408 16 q 408 9 403 4 q 398 0 392 0 z"},"#":{"x_min":0,"x_max":542,"ha":542,"o":"m 473 447 q 489 447 489 431 q 489 425 484 420 q 480 416 473 416 l 362 416 l 331 258 l 442 258 q 448 258 452 254 q 457 249 457 242 q 457 236 452 231 q 448 226 442 226 l 325 226 l 283 13 q 281 0 268 0 l 265 0 q 250 3 252 19 l 293 226 l 152 226 l 110 13 q 107 0 94 0 l 91 0 q 85 2 81 7 q 77 12 79 19 l 120 226 l -5 226 q -11 226 -16 231 q -20 236 -20 242 q -20 249 -16 254 q -11 258 -5 258 l 126 258 l 157 416 l 27 416 q 20 416 16 420 q 11 425 11 431 q 11 447 27 447 l 163 447 l 205 662 q 207 668 212 672 q 217 676 223 674 q 230 672 234 667 q 238 662 236 656 l 195 447 l 336 447 l 378 662 q 380 668 385 672 q 390 676 397 674 q 403 672 407 667 q 411 662 409 656 l 368 447 z m 330 416 l 189 416 l 158 258 l 299 258 z"},",":{"x_min":0,"x_max":85,"ha":85,"o":"m 27 -39 q 11 -39 11 -23 l 11 28 q 11 44 27 44 q 43 44 43 28 l 43 -23 q 43 -39 27 -39 z"},"n":{"x_min":0,"x_max":360,"ha":360,"o":"m 285 0 q 274 0 271 10 l 42 577 l 42 16 q 42 0 26 0 q 10 0 10 16 l 10 659 q 10 672 23 674 q 36 676 41 664 l 269 97 l 269 659 q 269 665 274 670 q 278 674 285 674 q 292 674 296 670 q 301 665 301 659 l 301 16 q 301 3 288 0 z"},"h":{"x_min":0,"x_max":344,"ha":344,"o":"m 264 674 q 271 674 276 670 q 280 665 280 659 l 280 16 q 280 0 264 0 q 248 0 248 16 l 248 321 l 44 321 l 44 16 q 44 0 28 0 q 12 0 12 16 l 12 659 q 12 665 16 670 q 21 674 28 674 q 35 674 40 670 q 44 665 44 659 l 44 353 l 248 353 l 248 659 q 248 665 252 670 q 257 674 264 674 z"},"z":{"x_min":0,"x_max":409,"ha":409,"o":"m 320 1 l 19 1 q 9 1 5 8 q 1 16 4 23 l 295 643 l 19 643 q 3 643 3 659 q 3 675 19 675 l 320 675 q 329 675 333 668 q 338 659 334 652 l 43 32 l 320 32 q 336 32 336 16 q 336 10 332 6 q 327 1 320 1 z"},"B":{"x_min":0,"x_max":336,"ha":336,"o":"m 202 337 q 224 326 239 308 q 274 264 274 176 q 274 88 239 44 q 202 0 125 0 l 30 0 q 14 0 14 16 l 14 659 q 14 665 18 670 q 23 674 30 674 l 125 674 q 202 674 239 630 q 274 586 274 498 q 274 411 239 367 q 231 357 222 350 q 213 343 202 337 z m 46 353 l 125 353 q 187 353 214 387 q 242 421 242 498 q 242 576 215 610 q 188 643 125 643 l 46 643 z m 125 31 q 188 31 215 64 q 242 98 242 176 q 242 254 214 288 q 187 322 125 322 l 46 322 l 46 31 z"},"K":{"x_min":0,"x_max":360,"ha":360,"o":"m 318 23 q 321 18 319 12 q 317 5 312 2 q 306 0 304 0 q 295 0 290 8 l 107 335 l 39 233 l 39 16 q 39 9 34 4 q 30 0 24 0 q 8 0 8 16 l 8 659 q 8 665 12 670 q 17 674 24 674 q 30 674 34 670 q 39 665 39 659 l 39 291 l 291 667 q 295 673 302 674 q 308 675 313 672 q 318 668 320 662 q 321 655 317 650 l 127 364 l 318 23 z"},"R":{"x_min":0,"x_max":348,"ha":348,"o":"m 247 307 q 291 265 291 188 l 291 17 q 291 1 275 1 q 269 1 264 6 q 260 10 260 17 l 260 188 q 260 250 227 284 q 194 317 134 317 l 44 317 l 44 17 q 44 1 28 1 q 22 1 18 6 q 13 10 13 17 l 13 660 q 13 666 18 670 q 22 675 28 675 l 134 675 q 214 675 252 632 q 290 589 290 497 q 290 406 253 362 q 237 343 212 332 q 222 327 230 321 q 239 315 247 307 z m 44 348 l 134 348 q 199 348 229 383 q 258 416 258 497 q 258 575 229 610 q 200 644 134 644 l 44 644 z"},"T":{"x_min":0,"x_max":380,"ha":380,"o":"m 324 675 q 331 675 336 670 q 340 666 340 660 q 340 644 324 644 l 179 644 l 179 17 q 179 10 174 6 q 169 1 163 1 q 147 1 147 17 l 147 644 l 1 644 q -5 644 -10 648 q -14 653 -14 660 q -14 666 -10 670 q -5 675 1 675 l 324 675 z"},"P":{"x_min":0,"x_max":340,"ha":340,"o":"m 26 0 q 10 0 10 16 l 10 659 q 10 665 14 670 q 19 674 26 674 l 132 674 q 213 674 251 630 q 288 587 288 498 q 288 409 251 366 q 213 322 132 322 l 42 322 l 42 16 q 42 0 26 0 z m 42 353 l 132 353 q 197 353 227 387 q 256 420 256 498 q 256 576 227 610 q 198 643 132 643 l 42 643 z"},"|":{"x_min":0,"x_max":89,"ha":89,"o":"m 24 0 q 8 0 8 16 l 8 659 q 8 665 12 670 q 17 674 24 674 q 31 674 36 670 q 40 665 40 659 l 40 16 q 40 0 24 0 z"},"t":{"x_min":0,"x_max":380,"ha":380,"o":"m 324 675 q 331 675 336 670 q 340 666 340 660 q 340 644 324 644 l 179 644 l 179 17 q 179 10 174 6 q 169 1 163 1 q 147 1 147 17 l 147 644 l 1 644 q -5 644 -10 648 q -14 653 -14 660 q -14 666 -10 670 q -5 675 1 675 l 324 675 z"},"M":{"x_min":0,"x_max":473,"ha":473,"o":"m 392 0 q 376 0 376 16 l 376 546 l 223 11 q 219 0 207 0 q 196 0 192 11 l 39 546 l 39 16 q 39 0 23 0 q 7 0 7 16 l 7 659 q 7 672 21 674 q 34 676 38 663 l 207 73 l 377 663 q 381 676 394 674 q 408 672 408 659 l 408 16 q 408 9 403 4 q 398 0 392 0 z"},"g":{"x_min":0,"x_max":352,"ha":352,"o":"m 151 0 q 80 0 43 46 q 7 91 7 178 l 7 497 q 7 584 43 629 q 79 674 151 674 q 223 674 259 629 q 295 584 295 497 q 295 481 279 481 q 263 481 263 497 q 263 546 252 575 q 241 604 224 619 q 208 634 188 638 q 169 643 151 643 q 133 643 113 638 q 93 634 76 619 q 60 604 49 575 q 38 546 38 497 l 38 178 q 38 103 67 66 q 96 31 151 31 q 206 31 235 66 q 263 101 263 178 l 263 266 l 133 266 q 117 266 117 282 q 117 298 133 298 l 279 298 q 295 298 295 282 l 295 178 q 295 91 259 46 q 222 0 151 0 z"},"j":{"x_min":0,"x_max":324,"ha":324,"o":"m 134 0 q 67 0 33 43 q 0 83 0 165 q 0 171 4 176 q 9 181 16 181 q 22 181 26 176 q 31 171 31 165 q 31 120 41 94 q 51 67 66 53 q 81 39 99 35 q 117 31 134 31 q 184 31 210 62 q 236 96 236 165 l 236 659 q 236 665 240 670 q 245 674 252 674 q 258 674 262 670 q 267 665 267 659 l 267 165 q 267 83 234 43 q 201 0 134 0 z"},"i":{"x_min":0,"x_max":105,"ha":105,"o":"m 34 0 q 18 0 18 16 l 18 659 q 18 665 22 670 q 27 674 34 674 q 41 674 46 670 q 50 665 50 659 l 50 16 q 50 0 34 0 z"},"y":{"x_min":0,"x_max":417,"ha":417,"o":"m 379 673 q 385 670 387 664 q 389 657 385 652 l 211 334 l 211 16 q 211 10 206 6 q 202 1 195 1 q 188 1 184 6 q 179 10 179 16 l 179 334 l 5 652 q 2 657 4 664 q 5 670 11 673 q 17 676 23 674 q 29 672 33 667 l 195 371 l 358 667 q 361 672 368 674 q 374 676 379 673 z"},"@":{"x_min":0,"x_max":647,"ha":647,"o":"m 387 165 q 365 170 354 186 q 344 202 347 225 q 331 214 312 212 q 294 209 271 209 q 216 209 191 237 q 165 268 172 332 q 180 394 209 425 q 240 459 296 459 q 310 459 333 456 q 356 453 373 441 q 376 439 381 434 q 382 438 382 442 q 384 448 389 452 q 394 456 400 454 q 407 453 411 448 q 415 443 413 436 q 413 436 411 422 q 409 408 406 387 q 402 366 398 340 q 393 315 389 292 q 385 268 382 250 q 379 231 378 223 q 375 201 395 195 q 399 194 402 194 q 406 193 411 193 q 427 193 448 199 q 468 205 488 216 q 507 228 523 244 q 539 260 547 280 q 557 306 562 336 q 566 366 564 396 q 561 427 553 455 q 545 483 531 504 q 512 534 484 556 q 457 577 424 589 q 390 601 352 604 q 315 606 276 598 q 240 590 204 572 q 167 554 135 523 q 103 492 79 448 q 55 404 46 346 q 32 257 60 188 q 88 119 154 78 q 196 52 248 41 q 299 30 352 33 q 404 36 454 52 q 505 68 546 98 q 551 102 558 101 q 564 100 568 95 q 576 82 565 72 q 521 41 467 22 q 413 4 353 1 l 331 1 q 277 1 228 14 q 179 26 138 51 q 63 98 31 174 q -1 251 15 351 q 33 465 108 541 q 141 575 182 597 q 223 619 270 629 q 313 638 356 635 q 398 632 436 618 q 473 604 504 580 q 536 555 558 521 q 574 496 583 464 q 592 433 594 400 q 597 366 592 332 q 588 298 576 268 q 565 241 542 220 q 520 198 492 184 q 465 169 437 164 q 409 159 387 165 z m 271 241 q 296 241 310 244 q 324 246 333 255 q 344 266 352 291 q 361 316 368 359 q 373 387 368 398 q 363 410 355 415 q 347 421 332 424 q 316 427 296 427 q 254 427 232 404 q 210 379 204 328 q 197 278 215 258 q 229 241 271 241 z"},".":{"x_min":0,"x_max":81,"ha":81,"o":"m 30 43 q 37 43 42 38 q 46 34 46 28 l 46 16 q 46 0 30 0 q 14 0 14 16 l 14 28 q 14 34 18 38 q 23 43 30 43 z"},"p":{"x_min":0,"x_max":340,"ha":340,"o":"m 26 0 q 10 0 10 16 l 10 659 q 10 665 14 670 q 19 674 26 674 l 132 674 q 213 674 251 630 q 288 587 288 498 q 288 409 251 366 q 213 322 132 322 l 42 322 l 42 16 q 42 0 26 0 z m 42 353 l 132 353 q 197 353 227 387 q 256 420 256 498 q 256 576 227 610 q 198 643 132 643 l 42 643 z"},"X":{"x_min":0,"x_max":392,"ha":392,"o":"m 341 23 q 344 17 342 11 q 339 5 333 2 q 331 1 327 1 q 316 1 312 10 l 175 301 l 38 10 q 33 1 24 1 q 19 1 17 2 q 4 9 9 23 l 158 338 l 9 652 q 7 658 9 664 q 11 671 17 673 q 31 680 38 666 l 175 375 l 312 666 q 315 672 322 674 q 328 676 333 673 q 339 671 342 664 q 344 658 341 652 l 193 338 z"},"*":{"x_min":0,"x_max":295,"ha":295,"o":"m 248 592 q 250 586 248 580 q 245 574 239 572 l 157 541 l 219 471 q 224 466 223 460 q 222 454 217 449 q 213 445 207 445 q 200 445 195 450 l 130 524 l 65 450 q 60 445 53 445 q 46 445 42 449 q 37 454 36 460 q 36 466 41 471 l 103 541 l 21 572 q 15 574 12 580 q 10 586 12 592 q 14 598 20 601 q 26 604 32 601 l 114 571 l 114 658 q 114 674 130 674 q 146 674 146 658 l 146 571 l 228 601 q 234 604 240 601 q 246 598 248 592 z"},"Y":{"x_min":0,"x_max":417,"ha":417,"o":"m 379 673 q 385 670 387 664 q 389 657 385 652 l 211 334 l 211 16 q 211 10 206 6 q 202 1 195 1 q 188 1 184 6 q 179 10 179 16 l 179 334 l 5 652 q 2 657 4 664 q 5 670 11 673 q 17 676 23 674 q 29 672 33 667 l 195 371 l 358 667 q 361 672 368 674 q 374 676 379 673 z"},"c":{"x_min":0,"x_max":344,"ha":344,"o":"m 153 0 q 129 0 104 7 q 78 14 57 34 q 36 54 23 88 q 10 123 10 179 l 10 496 q 10 551 23 586 q 36 621 57 640 q 78 660 104 667 q 129 674 153 674 q 178 674 204 667 q 229 660 250 640 q 271 621 284 586 q 297 551 297 496 q 297 480 281 480 q 265 480 265 496 q 265 571 236 608 q 210 643 153 643 q 98 643 70 608 q 41 571 41 496 l 41 179 q 41 104 70 66 q 99 31 153 31 q 209 31 236 66 q 265 104 265 179 q 265 195 281 195 q 297 195 297 179 q 297 123 284 88 q 271 54 250 34 q 229 14 204 7 q 178 0 153 0 z"},"!":{"x_min":0,"x_max":93,"ha":93,"o":"m 26 674 q 33 674 38 670 q 42 665 42 659 l 42 114 q 42 98 26 98 q 10 98 10 114 l 10 659 q 10 665 14 670 q 19 674 26 674 z m 26 43 q 33 43 38 38 q 42 34 42 28 l 42 16 q 42 0 26 0 q 10 0 10 16 l 10 28 q 10 34 14 38 q 19 43 26 43 z"},"/":{"x_min":0,"x_max":384,"ha":384,"o":"m 45 0 q 41 0 39 1 q 33 3 30 9 q 28 15 30 21 l 266 664 q 271 678 287 673 q 293 671 296 665 q 298 659 296 653 l 60 10 q 55 0 45 0 z"},"[":{"x_min":0,"x_max":833,"ha":833,"o":""},"6":{"x_min":0,"x_max":312,"ha":312,"o":"m 133 0 q 74 0 41 42 q 8 83 8 158 l 8 253 l 8 254 l 8 453 q 8 525 21 569 q 34 613 53 636 q 72 659 94 666 q 116 674 133 674 q 195 674 227 630 q 258 590 258 520 q 258 514 254 510 q 249 505 242 505 q 236 505 231 510 q 226 514 226 520 q 226 579 202 611 q 178 643 133 643 q 103 643 84 624 q 66 604 56 575 q 46 546 43 513 q 40 480 40 453 l 40 378 q 74 429 133 429 q 197 429 228 383 q 258 338 258 253 l 258 180 q 258 144 250 112 q 242 80 228 56 q 195 0 133 0 z m 40 254 l 40 158 q 40 140 43 118 q 46 96 56 76 q 66 57 84 44 q 103 31 133 31 q 177 31 201 73 q 214 93 220 120 q 226 148 226 180 l 226 253 q 226 329 202 365 q 179 398 133 398 q 89 398 65 358 q 40 319 40 254 z"},"r":{"x_min":0,"x_max":348,"ha":348,"o":"m 247 307 q 291 265 291 188 l 291 17 q 291 1 275 1 q 269 1 264 6 q 260 10 260 17 l 260 188 q 260 250 227 284 q 194 317 134 317 l 44 317 l 44 17 q 44 1 28 1 q 22 1 18 6 q 13 10 13 17 l 13 660 q 13 666 18 670 q 22 675 28 675 l 134 675 q 214 675 252 632 q 290 589 290 497 q 290 406 253 362 q 237 343 212 332 q 222 327 230 321 q 239 315 247 307 z m 44 348 l 134 348 q 199 348 229 383 q 258 416 258 497 q 258 575 229 610 q 200 644 134 644 l 44 644 z"},"2":{"x_min":0,"x_max":320,"ha":320,"o":"m 252 0 l 143 0 l 34 0 q 18 0 18 16 q 18 105 41 167 q 55 205 78 238 q 100 270 132 299 q 236 392 236 513 q 236 574 211 608 q 187 643 143 643 q 96 643 74 612 q 49 578 49 509 q 49 502 44 498 q 40 493 34 493 q 18 493 18 509 q 18 589 48 631 q 81 674 143 674 q 204 674 237 626 q 268 583 268 513 q 268 378 153 275 q 101 228 76 170 q 52 112 50 31 l 143 31 l 252 31 q 258 31 263 26 q 268 22 268 16 q 268 9 263 4 q 258 0 252 0 z"},"{":{"x_min":0,"x_max":833,"ha":833,"o":""},"9":{"x_min":0,"x_max":308,"ha":308,"o":"m 131 0 q 69 0 37 46 q 6 89 6 163 q 6 179 22 179 q 38 179 38 163 q 38 98 62 64 q 86 31 131 31 q 160 31 178 48 q 196 66 206 94 q 217 121 220 154 q 224 188 224 220 l 224 296 q 208 271 184 258 q 161 244 131 244 q 69 244 37 291 q 6 335 6 422 l 6 496 q 6 577 40 626 q 74 674 131 674 q 193 674 225 631 q 256 591 256 518 l 256 422 l 256 421 l 256 220 q 256 117 227 61 q 195 0 131 0 z m 131 643 q 88 643 63 603 q 38 562 38 496 l 38 422 q 38 344 63 309 q 85 276 131 276 q 175 276 199 316 q 211 335 218 362 q 224 389 224 421 l 224 518 q 224 580 200 612 q 177 643 131 643 z"}," ":{"x_min":0,"x_max":210,"ha":210,"o":""},"I":{"x_min":0,"x_max":105,"ha":105,"o":"m 34 0 q 18 0 18 16 l 18 659 q 18 665 22 670 q 27 674 34 674 q 41 674 46 670 q 50 665 50 659 l 50 16 q 50 0 34 0 z"},"H":{"x_min":0,"x_max":344,"ha":344,"o":"m 264 674 q 271 674 276 670 q 280 665 280 659 l 280 16 q 280 0 264 0 q 248 0 248 16 l 248 321 l 44 321 l 44 16 q 44 0 28 0 q 12 0 12 16 l 12 659 q 12 665 16 670 q 21 674 28 674 q 35 674 40 670 q 44 665 44 659 l 44 353 l 248 353 l 248 659 q 248 665 252 670 q 257 674 264 674 z"},"4":{"x_min":0,"x_max":324,"ha":324,"o":"m 261 0 q 245 0 245 16 l 245 206 l 20 206 q 11 206 6 213 q 1 221 6 229 l 247 666 q 253 677 265 674 q 277 671 277 659 l 277 16 q 277 9 272 4 q 267 0 261 0 z m 46 237 l 245 237 l 245 597 z"},"~":{"x_min":0,"x_max":833,"ha":833,"o":""},"D":{"x_min":0,"x_max":348,"ha":348,"o":"m 127 0 l 28 0 q 12 0 12 16 l 12 659 q 12 665 16 670 q 21 674 28 674 l 127 674 q 207 674 246 626 q 283 582 283 492 l 283 182 q 283 92 246 48 q 207 0 127 0 z m 43 31 l 127 31 q 192 31 222 68 q 251 104 251 182 l 251 492 q 251 570 222 606 q 192 643 127 643 l 43 643 z"},"^":{"x_min":0,"x_max":833,"ha":833,"o":""},"0":{"x_min":0,"x_max":356,"ha":356,"o":"m 153 0 q 129 0 104 7 q 78 14 57 34 q 36 54 23 88 q 10 123 10 179 l 10 496 q 10 582 45 628 q 82 674 153 674 q 225 674 261 628 q 297 583 297 496 l 297 179 q 297 123 284 88 q 271 54 250 34 q 229 14 204 7 q 178 0 153 0 z m 153 643 q 96 643 70 608 q 41 571 41 496 l 41 179 q 41 103 70 66 q 97 31 153 31 q 208 31 237 66 q 265 101 265 179 l 265 496 q 265 573 237 608 q 209 643 153 643 z"},"F":{"x_min":0,"x_max":308,"ha":308,"o":"m 241 353 q 257 353 257 337 q 257 331 252 326 q 248 322 241 322 l 46 322 l 46 16 q 46 9 42 4 q 37 0 31 0 q 15 0 15 16 l 15 659 q 15 665 20 670 q 24 674 31 674 l 241 674 q 248 674 252 670 q 257 665 257 659 q 257 643 241 643 l 46 643 l 46 353 l 241 353 z"},"`":{"x_min":0,"x_max":81,"ha":81,"o":"m 26 675 q 42 675 42 659 l 42 602 q 42 596 38 592 q 33 587 26 587 q 20 587 16 592 q 11 596 11 602 l 11 659 q 11 666 16 670 q 20 675 26 675 z"},"k":{"x_min":0,"x_max":360,"ha":360,"o":"m 318 23 q 321 18 319 12 q 317 5 312 2 q 306 0 304 0 q 295 0 290 8 l 107 335 l 39 233 l 39 16 q 39 9 34 4 q 30 0 24 0 q 8 0 8 16 l 8 659 q 8 665 12 670 q 17 674 24 674 q 30 674 34 670 q 39 665 39 659 l 39 291 l 291 667 q 295 673 302 674 q 308 675 313 672 q 318 668 320 662 q 321 655 317 650 l 127 364 l 318 23 z"},"u":{"x_min":0,"x_max":348,"ha":348,"o":"m 143 1 q 120 1 96 8 q 73 14 54 32 q 34 51 22 83 q 9 115 9 166 l 9 660 q 9 666 14 670 q 18 675 25 675 q 31 675 36 670 q 40 666 40 660 l 40 166 q 40 121 50 94 q 60 68 75 54 q 90 40 108 36 q 126 32 143 32 q 159 32 177 36 q 195 40 210 54 q 225 68 235 94 q 245 121 245 166 l 245 660 q 245 666 250 670 q 254 675 260 675 q 267 675 272 670 q 276 666 276 660 l 276 166 q 276 115 264 83 q 252 51 232 32 q 213 14 190 8 q 166 1 143 1 z"},"]":{"x_min":0,"x_max":833,"ha":833,"o":""},"U":{"x_min":0,"x_max":348,"ha":348,"o":"m 143 1 q 120 1 96 8 q 73 14 54 32 q 34 51 22 83 q 9 115 9 166 l 9 660 q 9 666 14 670 q 18 675 25 675 q 31 675 36 670 q 40 666 40 660 l 40 166 q 40 121 50 94 q 60 68 75 54 q 90 40 108 36 q 126 32 143 32 q 159 32 177 36 q 195 40 210 54 q 225 68 235 94 q 245 121 245 166 l 245 660 q 245 666 250 670 q 254 675 260 675 q 267 675 272 670 q 276 666 276 660 l 276 166 q 276 115 264 83 q 252 51 232 32 q 213 14 190 8 q 166 1 143 1 z"},"o":{"x_min":0,"x_max":348,"ha":348,"o":"m 153 0 q 129 0 104 7 q 78 14 57 34 q 36 54 23 88 q 10 123 10 179 l 10 496 q 10 582 45 628 q 82 674 153 674 q 225 674 261 628 q 297 583 297 496 l 297 179 q 297 123 284 88 q 271 54 250 34 q 229 14 204 7 q 178 0 153 0 z m 153 643 q 96 643 70 608 q 41 571 41 496 l 41 179 q 41 103 70 66 q 97 31 153 31 q 208 31 237 66 q 265 101 265 179 l 265 496 q 265 573 237 608 q 209 643 153 643 z"},"N":{"x_min":0,"x_max":360,"ha":360,"o":"m 285 0 q 274 0 271 10 l 42 577 l 42 16 q 42 0 26 0 q 10 0 10 16 l 10 659 q 10 672 23 674 q 36 676 41 664 l 269 97 l 269 659 q 269 665 274 670 q 278 674 285 674 q 292 674 296 670 q 301 665 301 659 l 301 16 q 301 3 288 0 z"},"+":{"x_min":0,"x_max":384,"ha":384,"o":"m 314 351 q 330 351 330 335 q 330 319 314 319 l 184 319 l 184 189 q 184 173 168 173 q 152 173 152 189 l 152 319 l 22 319 q 6 319 6 335 q 6 351 22 351 l 152 351 l 152 481 q 152 497 168 497 q 184 497 184 481 l 184 351 l 314 351 z"},"G":{"x_min":0,"x_max":352,"ha":352,"o":"m 151 0 q 80 0 43 46 q 7 91 7 178 l 7 497 q 7 584 43 629 q 79 674 151 674 q 223 674 259 629 q 295 584 295 497 q 295 481 279 481 q 263 481 263 497 q 263 546 252 575 q 241 604 224 619 q 208 634 188 638 q 169 643 151 643 q 133 643 113 638 q 93 634 76 619 q 60 604 49 575 q 38 546 38 497 l 38 178 q 38 103 67 66 q 96 31 151 31 q 206 31 235 66 q 263 101 263 178 l 263 266 l 133 266 q 117 266 117 282 q 117 298 133 298 l 279 298 q 295 298 295 282 l 295 178 q 295 91 259 46 q 222 0 151 0 z"},"q":{"x_min":0,"x_max":348,"ha":348,"o":"m 295 1 q 299 -4 298 -10 q 297 -17 292 -21 q 289 -25 283 -25 q 274 -25 270 -19 l 234 25 q 202 0 150 0 q 79 0 42 49 q 7 96 7 182 l 7 499 q 7 585 43 629 q 79 674 150 674 q 222 674 258 629 q 293 587 293 499 l 293 182 q 293 94 258 49 q 258 48 258 48 q 257 48 257 47 z m 150 31 q 188 31 214 49 l 180 92 q 175 97 176 103 q 177 109 182 114 q 194 122 204 112 l 236 72 q 262 110 262 182 l 262 499 q 262 573 233 610 q 206 643 150 643 q 94 643 67 610 q 38 573 38 499 l 38 182 q 38 106 67 68 q 95 31 150 31 z"},"d":{"x_min":0,"x_max":348,"ha":348,"o":"m 127 0 l 28 0 q 12 0 12 16 l 12 659 q 12 665 16 670 q 21 674 28 674 l 127 674 q 207 674 246 626 q 283 582 283 492 l 283 182 q 283 92 246 48 q 207 0 127 0 z m 43 31 l 127 31 q 192 31 222 68 q 251 104 251 182 l 251 492 q 251 570 222 606 q 192 643 127 643 l 43 643 z"},"1":{"x_min":0,"x_max":194,"ha":194,"o":"m 116 0 q 100 0 100 16 l 100 615 l 33 533 q 28 528 22 528 q 16 527 11 531 q 6 536 5 542 q 4 549 9 554 l 104 669 q 111 678 122 673 q 132 670 132 659 l 132 16 q 132 0 116 0 z"},"5":{"x_min":0,"x_max":310,"ha":310,"o":"m 230 374 q 261 331 261 247 l 261 176 q 261 141 253 110 q 245 78 231 55 q 196 0 136 0 q 74 0 41 47 q 11 92 11 176 q 11 192 27 192 q 33 192 38 188 q 42 183 42 176 q 42 102 67 65 q 91 31 136 31 q 178 31 204 72 q 229 113 229 176 l 229 247 q 229 322 204 356 q 182 388 136 388 q 93 388 67 350 q 42 311 42 247 l 42 246 q 42 239 38 234 q 33 230 27 230 q 11 230 11 246 l 11 659 q 11 665 16 670 q 20 674 27 674 l 245 674 q 251 674 256 670 q 261 665 261 659 q 261 652 256 648 q 251 643 245 643 l 42 643 l 42 369 q 78 420 136 420 q 198 420 230 374 z"}}}
